<svg version="1.1" viewBox="0.0 0.0 100.0 100.0" fill="none" stroke="none" stroke-linecap="square" stroke-miterlimit="10" xmlns:xlink="http://www.w3.org/1999/xlink" xmlns="http://www.w3.org/2000/svg"><clipPath id="p.0"><path d="m0 0l100.0 0l0 100.0l-100.0 0l0 -100.0z" clip-rule="nonzero"/></clipPath><g clip-path="url(#p.0)"><path fill="#000000" fill-opacity="0.0" d="m0 0l100.0 0l0 100.0l-100.0 0z" fill-rule="evenodd"/><path fill="#ffffff" d="m-0.028871391 0.005249344l100.0 0l0 100.0l-100.0 0z" fill-rule="evenodd"/><path fill="#000000" d="m8.553433 7.804216l19.181103 0l0 18.80315l-19.181103 0z" fill-rule="evenodd"/><path fill="#000000" d="m72.61192 7.804544l18.83464 0l0 18.80315l-18.83464 0z" fill-rule="evenodd"/><path fill="#000000" d="m8.905307 73.39263l18.834644 0l0 18.803154l-18.834644 0z" fill-rule="evenodd"/><path fill="#000000" d="m72.61192 73.39263l18.83464 0l0 18.803154l-18.83464 0z" fill-rule="evenodd"/><path fill="#000000" d="m8.905307 40.59859l18.834644 0l0 18.803146l-18.834644 0z" fill-rule="evenodd"/><path fill="#000000" d="m72.61192 40.59859l18.83464 0l0 18.803146l-18.83464 0z" fill-rule="evenodd"/></g></svg>